PathFileType	4	(X/Y/Z)	c:/Users/goper/Files/vsCode/490R/osim_files/C06/C06_SSWS_05.trc
DataRate	CameraRate	NumFrames	NumMarkers	Units                	OrigDataRate	OrigDataStartFrame	OrigNumFrames
250.00	250.00	10	36	mm	250.0	1042	2082
                Frame#	Time	LPSIS			LASIS			LTH1			LTH2			LTH3			LTH4			LLFE			LMFE			LSH1			LSH2			LSH3			LSH4			LLMAL			LMMAL			LCAL			LMTP5			LTOE			LMTP1			RPSIS			RASIS			RTH1			RTH2			RTH3			RTH4			RLFE			RMFE			RSH1			RSH2			RSH3			RSH4			RLMAL			RMMAL			RCAL			RMTP1			RTOE			RMTP5		
		X1	Y1	Z1	X2	Y2	Z2	X3	Y3	Z3	X4	Y4	Z4	X5	Y5	Z5	X6	Y6	Z6	X7	Y7	Z7	X8	Y8	Z8	X9	Y9	Z9	X10	Y10	Z10	X11	Y11	Z11	X12	Y12	Z12	X13	Y13	Z13	X14	Y14	Z14	X15	Y15	Z15	X16	Y16	Z16	X17	Y17	Z17	X18	Y18	Z18	X19	Y19	Z19	X20	Y20	Z20	X21	Y21	Z21	X22	Y22	Z22	X23	Y23	Z23	X24	Y24	Z24	X25	Y25	Z25	X26	Y26	Z26	X27	Y27	Z27	X28	Y28	Z28	X29	Y29	Z29	X30	Y30	Z30	X31	Y31	Z31	X32	Y32	Z32	X33	Y33	Z33	X34	Y34	Z34	X35	Y35	Z35	X36	Y36	Z36

1042	4.16400	-154.16048	963.10413	206.87361	-322.08057	948.61682	327.10880	-204.43340	763.42554	393.50897	-196.22739	701.39032	389.48273	-277.36703	749.04126	378.28842	-260.08920	689.62030	375.63831	-123.26396	462.25592	329.56723	-114.64019	449.67834	213.69571	-17.69473	383.38977	344.25037	-8.51493	340.72632	339.36166	-78.72871	362.98636	342.67062	-58.89069	323.73807	338.51321	60.63900	112.51775	284.34274	47.91986	133.76460	209.41710	134.99609	95.46373	241.45882	-32.01907	31.42190	307.96039	-87.24034	48.00570	239.81580	-53.78619	36.43338	195.62163	-156.09743	954.15247	136.87976	-342.32135	945.84900	88.09964	-315.29419	735.44714	2.56371	-349.97964	682.71161	7.06718	-381.20471	771.37390	17.04448	-406.32928	714.22528	17.58221	-495.62149	461.59357	57.35617	-507.89752	480.58615	166.08812	-479.72205	372.98770	43.00350	-502.32574	330.70499	41.86509	-537.49200	393.09357	48.17922	-551.28571	348.41873	47.02058	-636.47046	108.68497	85.05519	-633.80908	139.10625	161.20554	-592.08679	55.37358	134.40613	-784.27502	131.14906	166.26311	-792.31866	155.45741	116.03510	-764.75818	106.18697	54.36749
1043	4.16800	-159.72922	962.22559	206.67235	-327.60062	947.45178	327.00623	-209.04755	762.64606	393.48657	-201.08353	700.55762	389.06567	-282.56207	747.59351	378.59766	-264.83478	688.63422	375.38239	-127.24698	461.76865	329.27756	-118.76697	449.05212	213.43034	-21.13486	383.74857	344.01889	-11.66703	341.14432	339.14865	-81.89109	362.75101	342.41638	-61.78983	323.63712	338.32663	59.67593	113.55638	284.46326	46.91936	134.67725	209.50250	134.44954	97.09459	241.83189	-32.23404	31.48303	308.00095	-87.64960	47.56677	240.06544	-53.93339	36.46898	195.63531	-161.73363	953.43256	136.72249	-347.86789	945.23859	87.84379	-321.51959	734.86688	2.39455	-356.47940	682.24231	6.86814	-387.27347	770.92786	16.56070	-412.43878	713.55768	18.27621	-502.07211	461.10373	57.63537	-514.22491	480.33466	166.29295	-485.60995	372.28696	43.25307	-507.40958	330.12515	41.76108	-542.94476	392.10345	47.88713	-556.79004	347.12460	47.20988	-639.37982	107.14169	85.35162	-637.20380	137.44122	161.72125	-593.83112	55.81310	134.82024	-787.37366	127.20676	166.94444	-795.44318	152.88464	116.69443	-767.15002	103.75285	54.75506
1044	4.17200	-165.43280	961.33521	206.52203	-333.21109	946.30359	326.77939	-214.01880	761.79218	393.07663	-206.03500	699.69940	388.63348	-287.26965	746.69476	377.87003	-269.69028	687.63037	375.04242	-131.36583	461.27606	328.91974	-123.58891	448.35187	214.33276	-24.16073	384.49216	343.95978	-14.70488	341.63202	339.05865	-85.24389	362.65823	342.18253	-64.85585	323.67526	338.10568	58.68843	114.66087	284.64972	45.83224	135.58345	209.53378	133.50711	98.81571	242.05173	-32.43221	31.53519	308.05414	-88.15072	47.08505	240.23337	-54.10017	36.51656	195.63426	-167.42018	952.68079	136.60509	-353.50491	944.66870	87.54115	-327.82156	734.28241	2.06820	-362.96692	681.78534	6.62367	-393.44626	770.51776	16.18258	-418.82138	713.28815	17.92737	-508.44522	460.26266	57.85811	-520.90594	480.01367	166.46552	-491.83896	371.89731	43.38123	-512.51752	329.38626	42.03876	-549.25427	390.80911	48.71381	-562.16235	345.78284	47.48155	-641.79321	106.08772	85.69698	-640.58820	135.83330	162.27295	-595.37531	55.91666	135.41507	-790.20685	122.61906	168.22606	-798.28998	149.52655	117.53564	-768.95880	101.12508	54.98812
1045	4.17600	-171.20061	960.54169	206.32327	-338.85226	945.20227	326.55518	-219.14331	760.97864	392.65622	-210.90024	698.97449	388.12534	-292.24973	745.70862	377.53406	-274.61343	686.72595	374.67441	-135.46552	460.86618	328.60248	-127.86450	447.79486	214.04984	-27.74170	384.91211	343.69827	-18.00097	342.09653	338.80566	-88.64173	362.49588	341.93454	-67.79397	323.69086	337.87820	57.54224	115.82115	284.81497	44.64512	136.65462	209.60487	132.55563	100.65375	242.24385	-32.64981	31.60539	308.09164	-88.50722	46.76221	240.37444	-54.24752	36.56450	195.63188	-173.09171	952.07275	136.47116	-359.22491	944.13300	87.19625	-334.11124	733.73688	1.77372	-369.38815	681.36707	6.27096	-400.08057	770.43146	15.28435	-425.20361	713.04547	17.46339	-515.16156	459.87903	58.20313	-527.34711	479.75943	166.62071	-497.23090	371.09662	43.81670	-517.61108	328.53192	42.37388	-554.94226	389.55283	49.02797	-567.41571	344.47913	47.91850	-643.94366	105.12673	86.09156	-643.50134	134.16521	162.82259	-596.76294	56.02707	136.26875	-793.18915	118.43803	168.42813	-801.01208	145.62978	118.26659	-770.56079	98.25706	55.33058
1046	4.18000	-176.96786	959.74854	206.12949	-344.74078	944.03442	326.32651	-224.28757	760.27563	392.19971	-215.83118	698.27264	387.61710	-297.41431	744.81232	377.18243	-279.77786	685.60236	374.23221	-139.66180	460.45270	328.28244	-132.13019	447.30655	213.75859	-31.30723	385.38037	343.46771	-21.16828	342.69067	338.52454	-92.05975	362.44330	341.64258	-70.44108	324.03979	337.79532	56.56364	117.13881	284.93445	43.48131	137.72557	209.68216	131.61130	102.60606	242.37952	-32.81013	31.69912	308.12906	-88.86359	46.40687	240.43570	-54.42043	36.61348	195.64565	-178.76178	951.48315	136.38297	-364.89404	943.51276	86.84332	-340.51239	733.18011	1.50988	-375.87241	680.93384	5.95217	-406.20367	769.98444	15.24971	-431.64191	712.70288	16.98357	-521.56580	459.28561	58.40552	-533.61578	479.42960	166.83643	-502.78778	370.30142	44.17097	-522.52344	327.70325	42.75068	-560.15259	388.41699	48.86717	-572.51404	343.02759	48.32537	-645.59241	104.08549	86.59934	-645.92395	132.16414	163.48538	-598.34692	56.23495	137.13434	-796.41888	114.01285	168.14137	-803.53516	141.74500	118.75188	-772.44128	95.27960	55.75256
1047	4.18400	-182.74550	959.06091	205.99234	-350.44189	943.00800	326.07190	-229.41176	759.62177	391.71259	-220.79259	697.62854	387.18188	-302.47891	743.88208	376.85184	-284.75272	684.68463	373.82452	-143.81979	460.12610	327.98654	-136.40872	446.79309	213.37271	-34.96113	385.92200	343.11346	-24.45815	343.36157	338.29602	-95.52447	362.46301	341.37473	-73.98208	323.94019	337.37439	55.35004	118.39745	285.11124	42.13109	138.83878	209.73094	130.54697	104.61546	242.53882	-33.00718	31.81843	308.15921	-89.24476	46.04842	240.48235	-54.57686	36.69463	195.63811	-184.59662	950.90790	136.27145	-370.64108	942.99750	86.43553	-346.83603	732.71216	1.18774	-382.38477	680.47546	5.50570	-412.46158	769.59192	14.79567	-438.09366	712.36609	16.37685	-528.08124	458.56467	58.76367	-540.21210	479.17822	166.99245	-508.24615	369.51666	44.51145	-527.37567	326.82480	43.12928	-566.10999	386.96179	49.80235	-577.44635	341.52499	48.85918	-647.01221	102.69097	87.21827	-647.93158	129.92752	164.26407	-599.91241	56.49926	137.72229	-799.68597	107.44927	167.21788	-806.07697	138.01509	119.23731	-774.33661	91.99863	55.92330
1048	4.18800	-188.62030	958.38300	205.79668	-356.40741	941.88477	325.78156	-234.60121	759.00232	391.23267	-225.81602	697.02411	386.65982	-308.07040	742.82477	376.77176	-289.82147	683.94452	373.39249	-148.07527	459.80753	327.61798	-140.85857	446.33469	213.01901	-38.76195	386.46344	342.79745	-27.75710	344.04163	338.02426	-98.96431	362.46140	341.13611	-76.70264	324.40097	337.33215	54.11887	119.75842	285.22269	40.79174	140.11562	209.75072	129.23044	106.77444	242.54486	-33.31630	31.94685	308.27936	-89.66456	45.57967	240.53789	-54.71351	36.74504	195.61890	-190.42548	950.42407	136.17332	-376.43494	942.42566	85.98647	-353.32236	732.22736	0.95266	-389.11337	680.21484	5.03429	-418.93240	769.15442	14.34080	-444.58060	711.99780	15.74683	-534.46198	457.87115	59.06558	-546.40546	478.88293	167.19542	-513.76782	368.72202	44.88037	-532.13391	325.93967	43.61053	-571.19568	385.73856	49.68680	-582.43488	340.11118	49.45200	-648.50977	100.81168	87.90177	-649.92267	127.69958	165.05786	-601.60791	56.71827	138.04222	-802.99707	102.08556	166.48375	-808.73450	133.99490	119.71317	-776.30365	88.18665	56.08956
1049	4.19200	-194.53708	957.82263	205.66862	-362.42303	940.88293	325.59113	-239.94955	758.38696	390.69229	-230.94077	696.45764	386.11481	-313.02811	742.15283	376.06467	-294.67694	683.43817	373.08609	-152.59677	459.46835	327.25119	-145.24329	445.97540	212.63123	-42.64744	387.00577	342.49350	-31.28961	344.74005	337.68604	-102.60172	362.50290	340.82620	-80.43680	324.43652	336.94614	52.77422	121.13625	285.37625	39.31977	141.31062	209.81956	128.16209	109.05769	242.88838	-33.62215	32.07724	308.31146	-90.17231	45.06240	240.66011	-54.86721	36.80707	195.58939	-196.33836	949.95074	136.08298	-382.33801	941.96582	85.62271	-359.69351	731.80310	0.53320	-395.37021	679.77008	4.70846	-425.29825	768.76050	13.77066	-451.13535	711.64648	15.06175	-540.80670	457.17938	59.37534	-552.66632	478.45929	167.39006	-519.18958	367.92978	45.29457	-536.77142	325.15042	44.08113	-577.01343	384.33438	50.67743	-587.30988	338.62292	50.18775	-650.25226	98.79994	88.44635	-652.22180	125.69210	165.77104	-603.13458	57.01067	138.38081	-805.58197	97.13035	166.50839	-811.59644	129.59538	120.15421	-778.50958	84.06617	56.27766
1050	4.19600	-200.63435	957.24402	205.52275	-368.54337	939.84247	325.24164	-245.41316	757.84735	390.12570	-236.18411	695.93451	385.62439	-318.39291	741.37177	375.62079	-299.86487	682.69452	372.71307	-157.06696	459.16953	326.90842	-149.85429	445.56015	212.29657	-46.40929	387.92899	342.46994	-34.82596	345.51324	337.42892	-106.40940	362.54758	340.51025	-83.40553	324.95538	336.80814	51.31493	122.61991	285.51218	37.72041	142.58585	209.89104	126.73505	111.42970	243.06415	-33.89786	32.21518	308.21796	-90.76044	44.54605	240.69823	-55.09992	36.86192	195.55252	-202.30563	949.50031	135.94493	-388.30273	941.49768	85.02471	-366.15491	731.37671	0.18893	-401.77243	679.34033	4.30202	-431.74323	768.39478	13.18870	-457.62842	711.24323	14.37399	-547.02728	456.44797	59.75901	-559.20593	478.22137	167.50266	-524.58014	367.24710	45.67536	-541.42700	324.37512	44.66137	-582.47516	383.04108	51.28648	-592.04504	337.26163	50.92116	-652.26410	96.92955	88.87390	-654.93469	124.02339	166.28604	-604.80157	57.45938	138.50879	-807.53699	92.88973	166.85220	-814.51257	125.06183	120.30630	-780.66309	79.99705	56.36338
1051	4.20000	-206.74042	956.85498	205.40324	-374.88824	938.95123	324.84622	-250.95602	757.32739	389.52399	-241.48303	695.42493	385.06140	-323.90622	740.69031	375.15750	-305.35172	681.85760	372.25403	-161.63103	458.87894	326.53256	-154.47659	445.19540	211.85904	-50.43351	388.57364	342.10507	-38.46042	346.36816	337.14737	-110.17648	362.76212	340.21814	-86.93639	325.34186	336.47607	49.75930	124.23648	285.65945	36.15698	143.97841	209.89540	125.25696	113.93961	243.23190	-34.31465	32.37922	308.19815	-91.25017	44.16725	240.59061	-55.33460	36.91164	195.48140	-208.27895	949.17480	135.78882	-394.32303	940.94690	84.52225	-373.20740	731.11780	-0.63456	-408.05899	679.04553	3.78773	-438.23618	768.06152	12.59825	-464.09247	710.89380	13.67418	-553.13495	455.74490	60.21157	-565.18524	477.92987	167.55725	-529.94928	366.61060	46.12838	-546.09174	323.71545	45.23323	-587.39893	382.06116	51.35936	-596.94257	335.99182	51.79066	-654.63922	95.48737	89.19949	-657.91254	122.67210	166.66882	-606.65161	57.98708	138.50334	-809.87769	88.45148	167.00291	-817.43475	120.74311	120.57433	-782.86627	75.99832	56.58753
